<svg width="24" height="25" viewBox="0 0 24 25" fill="none" xmlns="http://www.w3.org/2000/svg">
<path d="M1.49624 12.8796C1.48682 15.3713 1.94191 17.843 2.83821 20.1679C2.98142 20.5992 3.22332 20.9911 3.54467 21.3124C3.86601 21.6338 4.25792 21.8757 4.68921 22.0189C7.01969 22.9256 9.50002 23.3856 12.0007 23.3748C14.4941 23.387 16.9678 22.9319 19.2936 22.0328C19.7247 21.8893 20.1164 21.6472 20.4377 21.3259C20.759 21.0046 21.0011 20.6129 21.1446 20.1818C22.048 17.8537 22.5063 15.3768 22.4958 12.8796C22.5082 10.3876 22.053 7.91544 21.1538 5.59129C21.0106 5.16 20.7687 4.76809 20.4474 4.44675C20.126 4.12541 19.7341 3.8835 19.3028 3.74029C16.9751 2.83439 14.4985 2.37141 12.0007 2.37518C9.50733 2.36454 7.03394 2.81966 4.70772 3.71716C4.27643 3.86037 3.88452 4.10227 3.56318 4.42361C3.24183 4.74495 2.99993 5.13686 2.85672 5.56815C1.95064 7.89896 1.48918 10.3789 1.49624 12.8796Z" stroke="#525252" stroke-width="0.6" stroke-linecap="round" stroke-linejoin="round"/>
<path d="M8.78043 5.10888L7.93359 2.78125" stroke="#525252" stroke-width="0.6" stroke-linecap="round" stroke-linejoin="round"/>
<path d="M15.2109 5.10888L16.0624 2.78125" stroke="#525252" stroke-width="0.6" stroke-linecap="round" stroke-linejoin="round"/>
<path d="M15.2109 20.6377L16.0624 22.9653" stroke="#525252" stroke-width="0.6" stroke-linecap="round" stroke-linejoin="round"/>
<path d="M8.78043 20.6377L7.93359 22.9653" stroke="#525252" stroke-width="0.6" stroke-linecap="round" stroke-linejoin="round"/>
<path d="M19.7617 9.65836L22.0893 8.81152" stroke="#525252" stroke-width="0.6" stroke-linecap="round" stroke-linejoin="round"/>
<path d="M19.7617 16.0918L22.0893 16.9433" stroke="#525252" stroke-width="0.6" stroke-linecap="round" stroke-linejoin="round"/>
<path d="M4.22997 9.65836L1.90234 8.81152" stroke="#525252" stroke-width="0.6" stroke-linecap="round" stroke-linejoin="round"/>
<path d="M4.22997 16.0918L1.90234 16.9433" stroke="#525252" stroke-width="0.6" stroke-linecap="round" stroke-linejoin="round"/>
<path d="M22.5003 12.8748L19.7608 16.0909L20.4226 21.2968L15.212 20.6397L11.9959 23.3746L8.77977 20.6397L3.57384 21.2968L4.23094 16.0909L1.49609 12.8748L4.23094 9.65868L3.57384 4.45275L8.77977 5.10985L11.9959 2.375L15.212 5.10985L20.4226 4.45275L19.7608 9.65868L22.5003 12.8748Z" stroke="#525252" stroke-width="0.6" stroke-linecap="round" stroke-linejoin="round"/>
<path d="M11.9954 6.7855L8.7793 5.11035L7.69184 8.57172L4.23047 9.65918L5.90562 12.8753L4.23047 16.0914L7.69184 17.1835L8.7793 20.6402L11.9954 18.9651L15.2115 20.6402L16.3036 17.1835L19.7603 16.0914L18.0852 12.8753L19.7603 9.65918L16.3036 8.57172L15.2115 5.11035L11.9954 6.7855Z" stroke="#525252" stroke-width="0.6" stroke-linecap="round" stroke-linejoin="round"/>
<path d="M5.90625 12.874L7.69246 8.57039L11.996 6.78418L16.3042 8.57039L18.0858 12.874L16.3042 17.1822L11.996 18.9637L7.69246 17.1822L5.90625 12.874Z" stroke="#525252" stroke-width="0.6" stroke-linecap="round" stroke-linejoin="round"/>
<path d="M16.3047 17.1831L18.0863 12.8749L16.3047 8.57129" stroke="#525252" stroke-width="0.6" stroke-linecap="round" stroke-linejoin="round"/>
<path d="M7.69246 17.1831L5.90625 12.8749L7.69246 8.57129" stroke="#525252" stroke-width="0.6" stroke-linecap="round" stroke-linejoin="round"/>
</svg>
