<svg width="25" height="25" viewBox="0 0 25 25" fill="none" xmlns="http://www.w3.org/2000/svg">
<path d="M17.3598 1.56543H7.49892L4.34375 4.7206V21.029L7.49892 24.1842H17.3598L20.515 21.029V4.7206L17.3598 1.56543Z" stroke="#525252" stroke-width="0.5" stroke-linecap="round" stroke-linejoin="round"/>
<path d="M17.6958 6.00884V19.7431L15.5977 21.7403H9.26321L7.25391 19.7027V6.04919L9.34794 4.13672H15.513L17.6958 6.00884Z" stroke="#525252" stroke-width="0.5" stroke-linecap="round" stroke-linejoin="round"/>
<path d="M19.3575 5.2501V20.5014L16.6381 23.1805H8.2216L5.43359 20.5297V5.21782L8.22967 2.5791H16.63L19.3575 5.2501Z" stroke="#525252" stroke-width="0.5" stroke-linecap="round" stroke-linejoin="round"/>
<path d="M16.4723 6.56391V19.1846L14.8948 20.7622H9.9643L8.38672 19.1846V6.56391L9.9643 4.98633H14.8948L16.4723 6.56391Z" stroke="#525252" stroke-width="0.5" stroke-linecap="round" stroke-linejoin="round"/>
<path d="M4.34375 4.7206L12.4294 8.41238L7.49892 1.56543" stroke="#525252" stroke-width="0.5" stroke-linecap="round" stroke-linejoin="round"/>
<path d="M20.5153 4.7206L12.4297 8.41238L17.3601 1.56543" stroke="#525252" stroke-width="0.5" stroke-linecap="round" stroke-linejoin="round"/>
<path d="M4.34375 21.0297L12.4294 17.3379L7.49892 24.1848" stroke="#525252" stroke-width="0.5" stroke-linecap="round" stroke-linejoin="round"/>
<path d="M20.5153 21.0297L12.4297 17.3379L17.3601 24.1848" stroke="#525252" stroke-width="0.5" stroke-linecap="round" stroke-linejoin="round"/>
<path d="M12.4297 8.41211V12.8745V17.337" stroke="#525252" stroke-width="0.5" stroke-linecap="round" stroke-linejoin="round"/>
</svg>
