<svg width="25" height="25" viewBox="0 0 25 25" fill="none" xmlns="http://www.w3.org/2000/svg">
<g clip-path="url(#clip0_3255_24122)">
<path d="M20.3317 13.0106C20.361 10.4247 19.6698 7.88174 18.3356 5.66646C16.9798 3.49248 14.8256 1.72168 12.0785 1.72168C9.33139 1.72168 7.17717 3.48853 5.8214 5.63879C4.48241 7.86234 3.78979 10.4152 3.82134 13.0106C3.79628 15.5884 4.4873 18.1226 5.81745 20.3309C7.17322 22.4851 9.33139 24.2559 12.0785 24.2559C14.8256 24.2559 16.9759 22.497 18.3317 20.3388C19.6654 18.129 20.3579 15.5916 20.3317 13.0106Z" stroke="#525252" stroke-width="0.6" stroke-linecap="round" stroke-linejoin="round"/>
<path d="M17.9336 15.7461L19.8269 16.8687" stroke="#525252" stroke-width="0.6" stroke-linecap="round" stroke-linejoin="round"/>
<path d="M14.5938 20.7578L15.9179 22.9634" stroke="#525252" stroke-width="0.6" stroke-linecap="round" stroke-linejoin="round"/>
<path d="M6.22146 15.7461L4.32812 16.8687" stroke="#525252" stroke-width="0.6" stroke-linecap="round" stroke-linejoin="round"/>
<path d="M9.56243 20.7578L8.23828 22.9634" stroke="#525252" stroke-width="0.6" stroke-linecap="round" stroke-linejoin="round"/>
<path d="M17.9336 10.2319L19.8269 9.10938" stroke="#525252" stroke-width="0.6" stroke-linecap="round" stroke-linejoin="round"/>
<path d="M14.5938 5.2242L15.9179 3.01465" stroke="#525252" stroke-width="0.6" stroke-linecap="round" stroke-linejoin="round"/>
<path d="M6.22146 10.2319L4.32812 9.10938" stroke="#525252" stroke-width="0.6" stroke-linecap="round" stroke-linejoin="round"/>
<path d="M9.56243 5.2242L8.23828 3.01465" stroke="#525252" stroke-width="0.6" stroke-linecap="round" stroke-linejoin="round"/>
<path d="M12.0813 1.72559L9.56347 5.22371L5.81633 5.65456L6.22345 10.2318L3.82812 12.9907" stroke="#525252" stroke-width="0.6" stroke-linecap="round" stroke-linejoin="round"/>
<path d="M12.082 1.72559L14.5959 5.22371L18.347 5.65456L17.936 10.2318L20.3352 12.9907" stroke="#525252" stroke-width="0.5" stroke-linecap="round" stroke-linejoin="round"/>
<path d="M12.0813 24.2564L9.56347 20.7543L5.81633 20.3234L6.22345 15.7462L3.82812 12.9912" stroke="#525252" stroke-width="0.5" stroke-linecap="round" stroke-linejoin="round"/>
<path d="M12.082 24.2564L14.5959 20.7543L18.347 20.3234L17.936 15.7462L20.3352 12.9912" stroke="#525252" stroke-width="0.5" stroke-linecap="round" stroke-linejoin="round"/>
<path d="M12.082 19.1011L14.5959 20.7533L15.339 16.9469L17.936 15.7453L16.3588 12.9902" stroke="#525252" stroke-width="0.6" stroke-linecap="round" stroke-linejoin="round"/>
<path d="M12.0805 19.1011L9.56268 20.7533L8.81957 16.9469L6.22266 15.7453L7.80373 12.9902" stroke="#525252" stroke-width="0.6" stroke-linecap="round" stroke-linejoin="round"/>
<path d="M12.082 6.87586L14.5959 5.22363L15.339 9.03007L17.936 10.2317L16.3588 12.9907" stroke="#525252" stroke-width="0.6" stroke-linecap="round" stroke-linejoin="round"/>
<path d="M12.0805 6.87586L9.56268 5.22363L8.81957 9.03007L6.22266 10.2317L7.80373 12.9907" stroke="#525252" stroke-width="0.6" stroke-linecap="round" stroke-linejoin="round"/>
<path d="M12.0815 6.87598L8.82053 9.03019L7.80469 12.9908" stroke="#525252" stroke-width="0.6" stroke-linecap="round" stroke-linejoin="round"/>
<path d="M12.082 6.87598L15.339 9.03019L16.3588 12.9908" stroke="#525252" stroke-width="0.6" stroke-linecap="round" stroke-linejoin="round"/>
<path d="M12.0815 19.1021L8.82053 16.9479L7.80469 12.9912" stroke="#525252" stroke-width="0.6" stroke-linecap="round" stroke-linejoin="round"/>
<path d="M12.082 19.1021L15.339 16.9479L16.3588 12.9912" stroke="#525252" stroke-width="0.6" stroke-linecap="round" stroke-linejoin="round"/>
</g>
<defs>
<clipPath id="clip0_3255_24122">
<rect width="18.6168" height="24" fill="white" transform="translate(2.71484 0.875)"/>
</clipPath>
</defs>
</svg>
