<svg width="25" height="25" viewBox="0 0 25 25" fill="none" xmlns="http://www.w3.org/2000/svg">
<path d="M12.6343 1.75293C16.3981 4.64354 19.4318 8.96063 20.1808 13.7971C20.4 14.9903 20.4153 16.2121 20.2259 17.4104C20.0263 18.6119 19.5509 19.7507 18.8371 20.7376C18.143 21.7429 17.2153 22.5648 16.1336 23.1324C15.0518 23.7001 13.8484 23.9967 12.6268 23.9967C11.4051 23.9967 10.2018 23.7001 9.12002 23.1324C8.03829 22.5648 7.11055 21.7429 6.4165 20.7376C5.70259 19.7518 5.22601 18.6144 5.02389 17.4141C4.83739 16.2119 4.85265 14.9869 5.06905 13.7896C5.83687 8.96063 8.88556 4.65106 12.6343 1.75293Z" stroke="#525252" stroke-width="0.6" stroke-linecap="round" stroke-linejoin="round"/>
<path d="M9.76971 21.0703L8.74219 22.892" stroke="#525252" stroke-width="0.6" stroke-linecap="round" stroke-linejoin="round"/>
<path d="M6.81863 16.8252L5.01953 17.2881" stroke="#525252" stroke-width="0.6" stroke-linecap="round" stroke-linejoin="round"/>
<path d="M7.17345 11.1686L5.97656 10.4873" stroke="#525252" stroke-width="0.6" stroke-linecap="round" stroke-linejoin="round"/>
<path d="M10.9004 5.41658L9.81641 4.34766" stroke="#525252" stroke-width="0.6" stroke-linecap="round" stroke-linejoin="round"/>
<path d="M15.4961 21.0703L16.5199 22.892" stroke="#525252" stroke-width="0.6" stroke-linecap="round" stroke-linejoin="round"/>
<path d="M18.4453 16.8252L20.2482 17.2881" stroke="#525252" stroke-width="0.6" stroke-linecap="round" stroke-linejoin="round"/>
<path d="M18.0898 11.1686L19.2867 10.4873" stroke="#525252" stroke-width="0.6" stroke-linecap="round" stroke-linejoin="round"/>
<path d="M14.3672 5.41658L15.4474 4.34766" stroke="#525252" stroke-width="0.6" stroke-linecap="round" stroke-linejoin="round"/>
<path d="M12.6328 1.75293L14.3679 5.41512L17.5822 7.12389L18.0903 11.1662L20.1793 13.7896L18.4441 16.8232L18.9748 20.5381L15.4971 21.0688L12.6328 23.9858" stroke="#525252" stroke-width="0.6" stroke-linecap="round" stroke-linejoin="round"/>
<path d="M12.6322 1.75293L10.8971 5.41512L7.68282 7.12389L7.17095 11.1662L5.08203 13.7896L6.81715 16.8232L6.29021 20.5381L9.76798 21.0688L12.6322 23.9858" stroke="#525252" stroke-width="0.6" stroke-linecap="round" stroke-linejoin="round"/>
<path d="M12.6354 19.9744L9.77114 21.0697L9.45874 18.1452L6.82031 16.8241L8.38982 14.3024L7.17411 11.1671L9.85394 9.77827L10.9003 5.41602L12.6354 6.8839" stroke="#525252" stroke-width="0.6" stroke-linecap="round" stroke-linejoin="round"/>
<path d="M12.6367 19.9744L15.501 21.0697L15.8134 18.1452L18.448 16.8241L16.8823 14.3024L18.0942 11.1671L15.4182 9.77827L14.3718 5.41602L12.6367 6.8839" stroke="#525252" stroke-width="0.6" stroke-linecap="round" stroke-linejoin="round"/>
<path d="M12.6328 19.9753L15.8095 18.1461L16.8784 14.3032L15.4143 9.77914L12.6328 6.88477" stroke="#525252" stroke-width="0.6" stroke-linecap="round" stroke-linejoin="round"/>
<path d="M12.6323 19.9753L9.45564 18.1461L8.38672 14.3032L9.85084 9.77914L12.6323 6.88477" stroke="#525252" stroke-width="0.6" stroke-linecap="round" stroke-linejoin="round"/>
</svg>
