<svg width="21" height="25" viewBox="0 0 21 25" fill="none" xmlns="http://www.w3.org/2000/svg">
<mask id="path-1-outside-1_3255_24115" maskUnits="userSpaceOnUse" x="0.351562" y="-0.125" width="21" height="26" fill="black">
<rect fill="white" x="0.351562" y="-0.125" width="21" height="26"/>
<path d="M20.7292 14.4586V12.7878H20.7324V11.2548C20.7324 8.75776 20.7324 6.17387 20.7254 3.63341C20.7199 3.46466 20.6545 3.30338 20.5408 3.17851C19.8954 2.51571 19.1995 1.82143 18.414 1.05115C18.3056 0.948348 18.1642 0.887368 18.015 0.879071C13.4634 0.873643 8.81616 0.873643 4.20044 0.879071C4.0493 0.885048 3.90505 0.943826 3.79277 1.04518C2.96821 1.81166 2.23484 2.50703 1.5525 3.17091C1.43472 3.29189 1.36522 3.45174 1.35708 3.62038C1.35002 9.57038 1.35002 15.6849 1.35545 21.7934C1.36127 21.9617 1.42514 22.1228 1.53621 22.2493C2.28804 23.0772 3.05126 23.8985 3.80472 24.6921C3.92255 24.8 4.07595 24.8609 4.23573 24.8631C6.73276 24.8669 9.27539 24.868 11.7328 24.8691C13.8651 24.8691 15.9971 24.8707 18.129 24.8739C18.229 24.8799 18.3288 24.8605 18.4193 24.8175C18.5097 24.7745 18.5878 24.7093 18.6463 24.628C19.2369 23.886 19.8682 23.1081 20.5229 22.3172C20.6643 22.1535 20.7392 21.9428 20.733 21.7266C20.7292 19.3028 20.7292 16.84 20.7292 14.4586ZM6.01296 20.4298V21.8411L4.12553 20.4298H6.01296ZM3.12292 5.78086C3.10012 10.0334 3.10555 14.3576 3.11097 18.5375V19.9385C3.11097 20.1421 3.05669 20.2751 2.92207 20.3983C2.63925 20.6578 2.36892 20.9178 2.0823 21.1935L1.87711 21.3928V3.94065L2.01011 4.06713C2.18214 4.24125 2.36764 4.40152 2.56488 4.54646C2.96984 4.82819 3.12617 5.17397 3.12292 5.78086ZM18.3575 20.5579L16.4484 21.9057L16.3615 20.5579H18.3575ZM4.08807 4.90527L6.03305 3.65675L5.97388 4.99918L4.08807 4.90527ZM12.3934 4.55677L15.7927 3.4711V4.93132C14.6517 4.88824 13.5153 4.76306 12.3923 4.55677H12.3934ZM9.91594 4.56491C8.80445 4.78686 7.67703 4.91973 6.5444 4.96227V3.46405L9.91594 4.56491ZM11.0271 4.27992C10.1043 4.01936 9.16791 3.74469 8.26247 3.47924L8.10776 3.43365H14.2488L14.1468 3.46676C13.8303 3.56936 13.503 3.67575 13.1784 3.76912C12.5617 3.94608 11.938 4.10893 11.3561 4.25767C11.2128 4.2935 11.1053 4.30001 11.0271 4.27775V4.27992ZM6.45266 5.73689C6.46297 5.52736 6.49446 5.47416 6.7105 5.46547C8.23424 5.41879 9.69609 5.15226 10.9272 4.89767C11.012 4.87956 11.0984 4.8701 11.1851 4.86944C11.2398 4.86881 11.2944 4.87409 11.3479 4.88518C12.7994 5.19449 14.2734 5.38619 15.7557 5.45842C15.7807 5.45842 15.8073 5.4633 15.841 5.46764L15.9311 6.59348C16.0109 7.58632 16.0896 8.5694 16.1672 9.55301C16.1895 9.83311 16.215 10.117 16.2399 10.3922C16.3007 11.0621 16.3637 11.7547 16.3778 12.436C16.3914 13.0874 16.3382 13.7567 16.2866 14.4021C16.2747 14.5536 16.2622 14.705 16.2508 14.8565C16.1732 15.9009 16.088 16.9627 16.0011 17.9892C15.9649 18.4104 15.9304 18.8318 15.8974 19.2534C15.8931 19.3121 15.8855 19.3723 15.8784 19.4315C15.8575 19.5638 15.8497 19.6978 15.8551 19.8316C15.8692 20.033 15.8193 20.0829 15.5733 20.1149C14.5273 20.249 13.2934 20.4146 12.065 20.6225C11.754 20.6768 11.4679 20.6127 11.1683 20.5465C11.0266 20.515 10.88 20.483 10.7313 20.464C10.1982 20.3967 9.66569 20.3266 9.13263 20.2571C8.34769 20.154 7.53615 20.0476 6.73656 19.9504C6.54983 19.9282 6.51563 19.8962 6.50531 19.7257C6.45863 18.9267 6.40597 18.1146 6.35495 17.3296C6.26429 15.9373 6.17038 14.4971 6.10633 13.0803C6.07647 12.4289 6.1199 11.7569 6.16061 11.1093C6.17527 10.8808 6.19047 10.6446 6.20241 10.4123C6.23661 9.73866 6.27461 9.05523 6.31098 8.39189C6.36038 7.52281 6.41032 6.62279 6.45266 5.73689ZM17.0233 12.9642C16.9845 12.8453 16.9802 12.7179 17.0108 12.5967C17.5161 10.921 18.0373 9.21917 18.5416 7.5733L18.7994 6.73245V18.5483L18.762 18.4327C18.1898 16.6408 17.5981 14.7886 17.0233 12.9642ZM18.7207 20.014H16.3594L16.8333 14.0971L18.7207 20.014ZM16.3659 5.49424L18.6664 5.39382L16.8327 11.3769L16.3659 5.49424ZM10.5033 20.9156L6.56665 21.9133V20.4157L10.5033 20.9156ZM12.0949 21.2994C12.8396 21.4959 13.5925 21.7147 14.3205 21.9258L14.9209 22.0984L14.9594 22.1104H7.85751L8.25541 22.011C8.8585 21.8607 9.48221 21.7054 10.0972 21.5583C10.5136 21.4584 10.9582 21.3553 11.412 21.2869C11.6374 21.2446 11.869 21.2489 12.0927 21.2994H12.0949ZM15.8404 20.5828L15.9224 21.8715L13.0057 20.9677L15.8404 20.5828ZM5.64384 14.1883L5.99993 19.8728H3.87474L5.64384 14.1883ZM3.88234 5.40902L5.95054 5.52898L5.63841 11.2586L3.88234 5.40902ZM3.64295 6.41706C4.24875 8.43423 4.87464 10.5165 5.48859 12.5799C5.52028 12.6734 5.52517 12.774 5.5027 12.8703C4.94684 14.6741 4.37523 16.5073 3.82317 18.278L3.64295 18.8572V6.41706ZM18.2126 4.90255H16.3458V3.66489L18.2126 4.90255ZM17.4874 1.44199C17.3676 1.55056 17.248 1.65912 17.1286 1.76769C16.7926 2.07222 16.4446 2.38706 16.0885 2.67748C15.9338 2.80342 15.7232 2.88864 15.5636 2.88918C12.7854 2.90276 9.92354 2.9033 6.81473 2.88918C6.63767 2.88034 6.46741 2.81829 6.32618 2.71113C5.90222 2.38543 5.48804 2.04508 5.04998 1.68518L4.71559 1.40888H17.5216C17.5096 1.42082 17.4988 1.43222 17.4874 1.44199ZM5.85554 3.14323C5.73449 3.22357 5.61995 3.30011 5.50433 3.37448C5.31035 3.50005 5.11602 3.62545 4.92132 3.75066C4.49303 4.02208 4.05008 4.30869 3.61852 4.59422C3.50073 4.67185 3.45079 4.66751 3.34711 4.57251C3.03715 4.27721 2.72285 3.99385 2.38955 3.69638L2.06385 3.40108L4.03433 1.52504L5.94457 3.08406L5.85554 3.14323ZM4.92404 24.0635C5.3849 23.5945 5.8208 23.1515 6.26809 22.7064C6.33121 22.6656 6.40593 22.6465 6.48089 22.6521C9.50067 22.6489 12.6258 22.6483 16.0348 22.6521C16.1819 22.6521 16.2204 22.6842 16.2264 22.6907C16.6639 23.1391 17.0922 23.5907 17.5455 24.0678L17.7919 24.3273H4.66565L4.92404 24.0635ZM16.6699 22.3889L19.0942 20.6757L19.2798 20.8814C19.5822 21.2158 19.8672 21.5328 20.1516 21.8585C20.157 21.8861 20.1547 21.9146 20.1451 21.941C19.6397 22.5723 19.1392 23.1895 18.6094 23.8409L18.3516 24.1612L16.6699 22.3889ZM20.1918 4.17679V21.1132L20.0778 20.9878C19.8384 20.7164 19.6115 20.4656 19.3954 20.2072C19.3688 20.1752 19.3688 20.0818 19.3688 20.0199V19.9993C19.346 15.5627 19.32 10.4036 19.3032 5.32651C19.3096 5.21529 19.3517 5.1091 19.4231 5.02361C19.6223 4.78964 19.8346 4.56166 20.0588 4.31792L20.1918 4.17679ZM16.4234 3.08786L18.1393 1.56033L20.0908 3.5091L18.946 4.76522L16.4234 3.08786ZM5.8094 22.3389L4.00448 24.1498L2.04593 22.0442L3.55176 20.6491L5.8094 22.3389Z"/>
</mask>
<path d="M20.7292 14.4586V12.7878H20.7324V11.2548C20.7324 8.75776 20.7324 6.17387 20.7254 3.63341C20.7199 3.46466 20.6545 3.30338 20.5408 3.17851C19.8954 2.51571 19.1995 1.82143 18.414 1.05115C18.3056 0.948348 18.1642 0.887368 18.015 0.879071C13.4634 0.873643 8.81616 0.873643 4.20044 0.879071C4.0493 0.885048 3.90505 0.943826 3.79277 1.04518C2.96821 1.81166 2.23484 2.50703 1.5525 3.17091C1.43472 3.29189 1.36522 3.45174 1.35708 3.62038C1.35002 9.57038 1.35002 15.6849 1.35545 21.7934C1.36127 21.9617 1.42514 22.1228 1.53621 22.2493C2.28804 23.0772 3.05126 23.8985 3.80472 24.6921C3.92255 24.8 4.07595 24.8609 4.23573 24.8631C6.73276 24.8669 9.27539 24.868 11.7328 24.8691C13.8651 24.8691 15.9971 24.8707 18.129 24.8739C18.229 24.8799 18.3288 24.8605 18.4193 24.8175C18.5097 24.7745 18.5878 24.7093 18.6463 24.628C19.2369 23.886 19.8682 23.1081 20.5229 22.3172C20.6643 22.1535 20.7392 21.9428 20.733 21.7266C20.7292 19.3028 20.7292 16.84 20.7292 14.4586ZM6.01296 20.4298V21.8411L4.12553 20.4298H6.01296ZM3.12292 5.78086C3.10012 10.0334 3.10555 14.3576 3.11097 18.5375V19.9385C3.11097 20.1421 3.05669 20.2751 2.92207 20.3983C2.63925 20.6578 2.36892 20.9178 2.0823 21.1935L1.87711 21.3928V3.94065L2.01011 4.06713C2.18214 4.24125 2.36764 4.40152 2.56488 4.54646C2.96984 4.82819 3.12617 5.17397 3.12292 5.78086ZM18.3575 20.5579L16.4484 21.9057L16.3615 20.5579H18.3575ZM4.08807 4.90527L6.03305 3.65675L5.97388 4.99918L4.08807 4.90527ZM12.3934 4.55677L15.7927 3.4711V4.93132C14.6517 4.88824 13.5153 4.76306 12.3923 4.55677H12.3934ZM9.91594 4.56491C8.80445 4.78686 7.67703 4.91973 6.5444 4.96227V3.46405L9.91594 4.56491ZM11.0271 4.27992C10.1043 4.01936 9.16791 3.74469 8.26247 3.47924L8.10776 3.43365H14.2488L14.1468 3.46676C13.8303 3.56936 13.503 3.67575 13.1784 3.76912C12.5617 3.94608 11.938 4.10893 11.3561 4.25767C11.2128 4.2935 11.1053 4.30001 11.0271 4.27775V4.27992ZM6.45266 5.73689C6.46297 5.52736 6.49446 5.47416 6.7105 5.46547C8.23424 5.41879 9.69609 5.15226 10.9272 4.89767C11.012 4.87956 11.0984 4.8701 11.1851 4.86944C11.2398 4.86881 11.2944 4.87409 11.3479 4.88518C12.7994 5.19449 14.2734 5.38619 15.7557 5.45842C15.7807 5.45842 15.8073 5.4633 15.841 5.46764L15.9311 6.59348C16.0109 7.58632 16.0896 8.5694 16.1672 9.55301C16.1895 9.83311 16.215 10.117 16.2399 10.3922C16.3007 11.0621 16.3637 11.7547 16.3778 12.436C16.3914 13.0874 16.3382 13.7567 16.2866 14.4021C16.2747 14.5536 16.2622 14.705 16.2508 14.8565C16.1732 15.9009 16.088 16.9627 16.0011 17.9892C15.9649 18.4104 15.9304 18.8318 15.8974 19.2534C15.8931 19.3121 15.8855 19.3723 15.8784 19.4315C15.8575 19.5638 15.8497 19.6978 15.8551 19.8316C15.8692 20.033 15.8193 20.0829 15.5733 20.1149C14.5273 20.249 13.2934 20.4146 12.065 20.6225C11.754 20.6768 11.4679 20.6127 11.1683 20.5465C11.0266 20.515 10.88 20.483 10.7313 20.464C10.1982 20.3967 9.66569 20.3266 9.13263 20.2571C8.34769 20.154 7.53615 20.0476 6.73656 19.9504C6.54983 19.9282 6.51563 19.8962 6.50531 19.7257C6.45863 18.9267 6.40597 18.1146 6.35495 17.3296C6.26429 15.9373 6.17038 14.4971 6.10633 13.0803C6.07647 12.4289 6.1199 11.7569 6.16061 11.1093C6.17527 10.8808 6.19047 10.6446 6.20241 10.4123C6.23661 9.73866 6.27461 9.05523 6.31098 8.39189C6.36038 7.52281 6.41032 6.62279 6.45266 5.73689ZM17.0233 12.9642C16.9845 12.8453 16.9802 12.7179 17.0108 12.5967C17.5161 10.921 18.0373 9.21917 18.5416 7.5733L18.7994 6.73245V18.5483L18.762 18.4327C18.1898 16.6408 17.5981 14.7886 17.0233 12.9642ZM18.7207 20.014H16.3594L16.8333 14.0971L18.7207 20.014ZM16.3659 5.49424L18.6664 5.39382L16.8327 11.3769L16.3659 5.49424ZM10.5033 20.9156L6.56665 21.9133V20.4157L10.5033 20.9156ZM12.0949 21.2994C12.8396 21.4959 13.5925 21.7147 14.3205 21.9258L14.9209 22.0984L14.9594 22.1104H7.85751L8.25541 22.011C8.8585 21.8607 9.48221 21.7054 10.0972 21.5583C10.5136 21.4584 10.9582 21.3553 11.412 21.2869C11.6374 21.2446 11.869 21.2489 12.0927 21.2994H12.0949ZM15.8404 20.5828L15.9224 21.8715L13.0057 20.9677L15.8404 20.5828ZM5.64384 14.1883L5.99993 19.8728H3.87474L5.64384 14.1883ZM3.88234 5.40902L5.95054 5.52898L5.63841 11.2586L3.88234 5.40902ZM3.64295 6.41706C4.24875 8.43423 4.87464 10.5165 5.48859 12.5799C5.52028 12.6734 5.52517 12.774 5.5027 12.8703C4.94684 14.6741 4.37523 16.5073 3.82317 18.278L3.64295 18.8572V6.41706ZM18.2126 4.90255H16.3458V3.66489L18.2126 4.90255ZM17.4874 1.44199C17.3676 1.55056 17.248 1.65912 17.1286 1.76769C16.7926 2.07222 16.4446 2.38706 16.0885 2.67748C15.9338 2.80342 15.7232 2.88864 15.5636 2.88918C12.7854 2.90276 9.92354 2.9033 6.81473 2.88918C6.63767 2.88034 6.46741 2.81829 6.32618 2.71113C5.90222 2.38543 5.48804 2.04508 5.04998 1.68518L4.71559 1.40888H17.5216C17.5096 1.42082 17.4988 1.43222 17.4874 1.44199ZM5.85554 3.14323C5.73449 3.22357 5.61995 3.30011 5.50433 3.37448C5.31035 3.50005 5.11602 3.62545 4.92132 3.75066C4.49303 4.02208 4.05008 4.30869 3.61852 4.59422C3.50073 4.67185 3.45079 4.66751 3.34711 4.57251C3.03715 4.27721 2.72285 3.99385 2.38955 3.69638L2.06385 3.40108L4.03433 1.52504L5.94457 3.08406L5.85554 3.14323ZM4.92404 24.0635C5.3849 23.5945 5.8208 23.1515 6.26809 22.7064C6.33121 22.6656 6.40593 22.6465 6.48089 22.6521C9.50067 22.6489 12.6258 22.6483 16.0348 22.6521C16.1819 22.6521 16.2204 22.6842 16.2264 22.6907C16.6639 23.1391 17.0922 23.5907 17.5455 24.0678L17.7919 24.3273H4.66565L4.92404 24.0635ZM16.6699 22.3889L19.0942 20.6757L19.2798 20.8814C19.5822 21.2158 19.8672 21.5328 20.1516 21.8585C20.157 21.8861 20.1547 21.9146 20.1451 21.941C19.6397 22.5723 19.1392 23.1895 18.6094 23.8409L18.3516 24.1612L16.6699 22.3889ZM20.1918 4.17679V21.1132L20.0778 20.9878C19.8384 20.7164 19.6115 20.4656 19.3954 20.2072C19.3688 20.1752 19.3688 20.0818 19.3688 20.0199V19.9993C19.346 15.5627 19.32 10.4036 19.3032 5.32651C19.3096 5.21529 19.3517 5.1091 19.4231 5.02361C19.6223 4.78964 19.8346 4.56166 20.0588 4.31792L20.1918 4.17679ZM16.4234 3.08786L18.1393 1.56033L20.0908 3.5091L18.946 4.76522L16.4234 3.08786ZM5.8094 22.3389L4.00448 24.1498L2.04593 22.0442L3.55176 20.6491L5.8094 22.3389Z" fill="#525252"/>
<path d="M20.7292 14.4586V12.7878H20.7324V11.2548C20.7324 8.75776 20.7324 6.17387 20.7254 3.63341C20.7199 3.46466 20.6545 3.30338 20.5408 3.17851C19.8954 2.51571 19.1995 1.82143 18.414 1.05115C18.3056 0.948348 18.1642 0.887368 18.015 0.879071C13.4634 0.873643 8.81616 0.873643 4.20044 0.879071C4.0493 0.885048 3.90505 0.943826 3.79277 1.04518C2.96821 1.81166 2.23484 2.50703 1.5525 3.17091C1.43472 3.29189 1.36522 3.45174 1.35708 3.62038C1.35002 9.57038 1.35002 15.6849 1.35545 21.7934C1.36127 21.9617 1.42514 22.1228 1.53621 22.2493C2.28804 23.0772 3.05126 23.8985 3.80472 24.6921C3.92255 24.8 4.07595 24.8609 4.23573 24.8631C6.73276 24.8669 9.27539 24.868 11.7328 24.8691C13.8651 24.8691 15.9971 24.8707 18.129 24.8739C18.229 24.8799 18.3288 24.8605 18.4193 24.8175C18.5097 24.7745 18.5878 24.7093 18.6463 24.628C19.2369 23.886 19.8682 23.1081 20.5229 22.3172C20.6643 22.1535 20.7392 21.9428 20.733 21.7266C20.7292 19.3028 20.7292 16.84 20.7292 14.4586ZM6.01296 20.4298V21.8411L4.12553 20.4298H6.01296ZM3.12292 5.78086C3.10012 10.0334 3.10555 14.3576 3.11097 18.5375V19.9385C3.11097 20.1421 3.05669 20.2751 2.92207 20.3983C2.63925 20.6578 2.36892 20.9178 2.0823 21.1935L1.87711 21.3928V3.94065L2.01011 4.06713C2.18214 4.24125 2.36764 4.40152 2.56488 4.54646C2.96984 4.82819 3.12617 5.17397 3.12292 5.78086ZM18.3575 20.5579L16.4484 21.9057L16.3615 20.5579H18.3575ZM4.08807 4.90527L6.03305 3.65675L5.97388 4.99918L4.08807 4.90527ZM12.3934 4.55677L15.7927 3.4711V4.93132C14.6517 4.88824 13.5153 4.76306 12.3923 4.55677H12.3934ZM9.91594 4.56491C8.80445 4.78686 7.67703 4.91973 6.5444 4.96227V3.46405L9.91594 4.56491ZM11.0271 4.27992C10.1043 4.01936 9.16791 3.74469 8.26247 3.47924L8.10776 3.43365H14.2488L14.1468 3.46676C13.8303 3.56936 13.503 3.67575 13.1784 3.76912C12.5617 3.94608 11.938 4.10893 11.3561 4.25767C11.2128 4.2935 11.1053 4.30001 11.0271 4.27775V4.27992ZM6.45266 5.73689C6.46297 5.52736 6.49446 5.47416 6.7105 5.46547C8.23424 5.41879 9.69609 5.15226 10.9272 4.89767C11.012 4.87956 11.0984 4.8701 11.1851 4.86944C11.2398 4.86881 11.2944 4.87409 11.3479 4.88518C12.7994 5.19449 14.2734 5.38619 15.7557 5.45842C15.7807 5.45842 15.8073 5.4633 15.841 5.46764L15.9311 6.59348C16.0109 7.58632 16.0896 8.5694 16.1672 9.55301C16.1895 9.83311 16.215 10.117 16.2399 10.3922C16.3007 11.0621 16.3637 11.7547 16.3778 12.436C16.3914 13.0874 16.3382 13.7567 16.2866 14.4021C16.2747 14.5536 16.2622 14.705 16.2508 14.8565C16.1732 15.9009 16.088 16.9627 16.0011 17.9892C15.9649 18.4104 15.9304 18.8318 15.8974 19.2534C15.8931 19.3121 15.8855 19.3723 15.8784 19.4315C15.8575 19.5638 15.8497 19.6978 15.8551 19.8316C15.8692 20.033 15.8193 20.0829 15.5733 20.1149C14.5273 20.249 13.2934 20.4146 12.065 20.6225C11.754 20.6768 11.4679 20.6127 11.1683 20.5465C11.0266 20.515 10.88 20.483 10.7313 20.464C10.1982 20.3967 9.66569 20.3266 9.13263 20.2571C8.34769 20.154 7.53615 20.0476 6.73656 19.9504C6.54983 19.9282 6.51563 19.8962 6.50531 19.7257C6.45863 18.9267 6.40597 18.1146 6.35495 17.3296C6.26429 15.9373 6.17038 14.4971 6.10633 13.0803C6.07647 12.4289 6.1199 11.7569 6.16061 11.1093C6.17527 10.8808 6.19047 10.6446 6.20241 10.4123C6.23661 9.73866 6.27461 9.05523 6.31098 8.39189C6.36038 7.52281 6.41032 6.62279 6.45266 5.73689ZM17.0233 12.9642C16.9845 12.8453 16.9802 12.7179 17.0108 12.5967C17.5161 10.921 18.0373 9.21917 18.5416 7.5733L18.7994 6.73245V18.5483L18.762 18.4327C18.1898 16.6408 17.5981 14.7886 17.0233 12.9642ZM18.7207 20.014H16.3594L16.8333 14.0971L18.7207 20.014ZM16.3659 5.49424L18.6664 5.39382L16.8327 11.3769L16.3659 5.49424ZM10.5033 20.9156L6.56665 21.9133V20.4157L10.5033 20.9156ZM12.0949 21.2994C12.8396 21.4959 13.5925 21.7147 14.3205 21.9258L14.9209 22.0984L14.9594 22.1104H7.85751L8.25541 22.011C8.8585 21.8607 9.48221 21.7054 10.0972 21.5583C10.5136 21.4584 10.9582 21.3553 11.412 21.2869C11.6374 21.2446 11.869 21.2489 12.0927 21.2994H12.0949ZM15.8404 20.5828L15.9224 21.8715L13.0057 20.9677L15.8404 20.5828ZM5.64384 14.1883L5.99993 19.8728H3.87474L5.64384 14.1883ZM3.88234 5.40902L5.95054 5.52898L5.63841 11.2586L3.88234 5.40902ZM3.64295 6.41706C4.24875 8.43423 4.87464 10.5165 5.48859 12.5799C5.52028 12.6734 5.52517 12.774 5.5027 12.8703C4.94684 14.6741 4.37523 16.5073 3.82317 18.278L3.64295 18.8572V6.41706ZM18.2126 4.90255H16.3458V3.66489L18.2126 4.90255ZM17.4874 1.44199C17.3676 1.55056 17.248 1.65912 17.1286 1.76769C16.7926 2.07222 16.4446 2.38706 16.0885 2.67748C15.9338 2.80342 15.7232 2.88864 15.5636 2.88918C12.7854 2.90276 9.92354 2.9033 6.81473 2.88918C6.63767 2.88034 6.46741 2.81829 6.32618 2.71113C5.90222 2.38543 5.48804 2.04508 5.04998 1.68518L4.71559 1.40888H17.5216C17.5096 1.42082 17.4988 1.43222 17.4874 1.44199ZM5.85554 3.14323C5.73449 3.22357 5.61995 3.30011 5.50433 3.37448C5.31035 3.50005 5.11602 3.62545 4.92132 3.75066C4.49303 4.02208 4.05008 4.30869 3.61852 4.59422C3.50073 4.67185 3.45079 4.66751 3.34711 4.57251C3.03715 4.27721 2.72285 3.99385 2.38955 3.69638L2.06385 3.40108L4.03433 1.52504L5.94457 3.08406L5.85554 3.14323ZM4.92404 24.0635C5.3849 23.5945 5.8208 23.1515 6.26809 22.7064C6.33121 22.6656 6.40593 22.6465 6.48089 22.6521C9.50067 22.6489 12.6258 22.6483 16.0348 22.6521C16.1819 22.6521 16.2204 22.6842 16.2264 22.6907C16.6639 23.1391 17.0922 23.5907 17.5455 24.0678L17.7919 24.3273H4.66565L4.92404 24.0635ZM16.6699 22.3889L19.0942 20.6757L19.2798 20.8814C19.5822 21.2158 19.8672 21.5328 20.1516 21.8585C20.157 21.8861 20.1547 21.9146 20.1451 21.941C19.6397 22.5723 19.1392 23.1895 18.6094 23.8409L18.3516 24.1612L16.6699 22.3889ZM20.1918 4.17679V21.1132L20.0778 20.9878C19.8384 20.7164 19.6115 20.4656 19.3954 20.2072C19.3688 20.1752 19.3688 20.0818 19.3688 20.0199V19.9993C19.346 15.5627 19.32 10.4036 19.3032 5.32651C19.3096 5.21529 19.3517 5.1091 19.4231 5.02361C19.6223 4.78964 19.8346 4.56166 20.0588 4.31792L20.1918 4.17679ZM16.4234 3.08786L18.1393 1.56033L20.0908 3.5091L18.946 4.76522L16.4234 3.08786ZM5.8094 22.3389L4.00448 24.1498L2.04593 22.0442L3.55176 20.6491L5.8094 22.3389Z" stroke="#7A7A7A" stroke-width="0.2" mask="url(#path-1-outside-1_3255_24115)"/>
</svg>
