<svg width="24" height="25" viewBox="0 0 24 25" fill="none" xmlns="http://www.w3.org/2000/svg">
<path d="M23.2472 12.8785C23.2482 10.6534 22.5891 8.47788 21.3535 6.6273C20.1179 4.77672 18.3611 3.33419 16.3055 2.4822C14.2499 1.63021 11.9878 1.40703 9.80532 1.8409C7.62284 2.27477 5.61808 3.3462 4.04464 4.91964C2.4712 6.49308 1.39977 8.49784 0.965902 10.6803C0.532031 12.8628 0.755208 15.1249 1.6072 17.1805C2.45919 19.2361 3.90172 20.9929 5.7523 22.2285C7.60288 23.4641 9.77836 24.1231 12.0035 24.1222C14.9851 24.1209 17.8442 22.9358 19.9525 20.8275C22.0608 18.7192 23.2459 15.8601 23.2472 12.8785Z" stroke="#525252" stroke-width="0.6" stroke-linecap="round" stroke-linejoin="round"/>
<path d="M15.2969 4.9146L16.3082 2.48047" stroke="#525252" stroke-width="0.6" stroke-linecap="round" stroke-linejoin="round"/>
<path d="M19.957 9.57473L22.3961 8.56836" stroke="#525252" stroke-width="0.6" stroke-linecap="round" stroke-linejoin="round"/>
<path d="M19.957 16.167L22.3961 17.1783" stroke="#525252" stroke-width="0.6" stroke-linecap="round" stroke-linejoin="round"/>
<path d="M15.2969 20.8281L16.3082 23.2672" stroke="#525252" stroke-width="0.6" stroke-linecap="round" stroke-linejoin="round"/>
<path d="M8.70169 20.8281L7.69531 23.2672" stroke="#525252" stroke-width="0.6" stroke-linecap="round" stroke-linejoin="round"/>
<path d="M4.04351 16.167L1.60938 17.1783" stroke="#525252" stroke-width="0.6" stroke-linecap="round" stroke-linejoin="round"/>
<path d="M4.04351 9.57473L1.60938 8.56836" stroke="#525252" stroke-width="0.6" stroke-linecap="round" stroke-linejoin="round"/>
<path d="M8.70169 4.9146L7.69531 2.48047" stroke="#525252" stroke-width="0.6" stroke-linecap="round" stroke-linejoin="round"/>
<path d="M8.70312 4.92174L11.9999 1.625L15.2966 4.92174" stroke="#525252" stroke-width="0.6" stroke-linecap="round" stroke-linejoin="round"/>
<path d="M4.04297 9.576L4.04793 4.9209H8.70302" stroke="#525252" stroke-width="0.6" stroke-linecap="round" stroke-linejoin="round"/>
<path d="M4.04178 16.1697L0.75 12.8729L4.04178 9.57617" stroke="#525252" stroke-width="0.6" stroke-linecap="round" stroke-linejoin="round"/>
<path d="M8.70302 20.83H4.04793L4.04297 16.1699" stroke="#525252" stroke-width="0.6" stroke-linecap="round" stroke-linejoin="round"/>
<path d="M15.2966 20.8281L11.9999 24.1249L8.70312 20.8281" stroke="#525252" stroke-width="0.6" stroke-linecap="round" stroke-linejoin="round"/>
<path d="M19.9569 16.1699V20.83H15.2969" stroke="#525252" stroke-width="0.6" stroke-linecap="round" stroke-linejoin="round"/>
<path d="M19.957 9.57617L23.2538 12.8729L19.957 16.1697" stroke="#525252" stroke-width="0.6" stroke-linecap="round" stroke-linejoin="round"/>
<path d="M15.2969 4.9209H19.9569V9.576" stroke="#525252" stroke-width="0.6" stroke-linecap="round" stroke-linejoin="round"/>
<path d="M16.6602 8.21484L19.9569 9.57816L18.5936 12.8749" stroke="#525252" stroke-width="0.6" stroke-linecap="round" stroke-linejoin="round"/>
<path d="M18.5936 12.873L19.9569 16.1698L16.6602 17.5331" stroke="#525252" stroke-width="0.6" stroke-linecap="round" stroke-linejoin="round"/>
<path d="M16.6601 17.5332L15.2967 20.8299L12 19.4666" stroke="#525252" stroke-width="0.6" stroke-linecap="round" stroke-linejoin="round"/>
<path d="M11.9999 19.4666L8.70316 20.8299L7.33984 17.5332" stroke="#525252" stroke-width="0.6" stroke-linecap="round" stroke-linejoin="round"/>
<path d="M7.33971 17.5331L4.04297 16.1698L5.41124 12.873" stroke="#525252" stroke-width="0.6" stroke-linecap="round" stroke-linejoin="round"/>
<path d="M5.41124 12.8749L4.04297 9.57816L7.33971 8.21484" stroke="#525252" stroke-width="0.6" stroke-linecap="round" stroke-linejoin="round"/>
<path d="M7.33984 8.21366L8.70316 4.92188L11.9999 6.28519" stroke="#525252" stroke-width="0.6" stroke-linecap="round" stroke-linejoin="round"/>
<path d="M12 6.28519L15.2967 4.92188L16.6601 8.21366" stroke="#525252" stroke-width="0.6" stroke-linecap="round" stroke-linejoin="round"/>
<path d="M11.9987 6.2832L7.33863 8.21167L5.41016 12.8717L7.33863 17.5318L11.9987 19.4652L16.6587 17.5318L18.5922 12.8717L16.6587 8.21167L11.9987 6.2832Z" stroke="#525252" stroke-width="0.6" stroke-linecap="round" stroke-linejoin="round"/>
</svg>
